<svg width="20" height="20" viewBox="0 0 20 20" fill="none" xmlns="http://www.w3.org/2000/svg">
<path d="M2.25626 14.5937C1.13959 12.7097 0.748993 10.4829 1.1578 8.33134C1.5666 6.17977 2.74669 4.2514 4.47652 2.90826C6.20636 1.56511 8.36697 0.899553 10.5527 1.03654C12.7385 1.17352 14.7991 2.10362 16.3477 3.65222C17.8963 5.20083 18.8264 7.26144 18.9634 9.44722C19.1004 11.633 18.4348 13.7936 17.0917 15.5234C15.7486 17.2533 13.8202 18.4334 11.6686 18.8422C9.51705 19.251 7.29025 18.8604 5.40626 17.7437V17.7437L2.29376 18.6249C2.16624 18.6622 2.03103 18.6646 1.90231 18.6316C1.77359 18.5987 1.6561 18.5318 1.56215 18.4378C1.4682 18.3439 1.40126 18.2264 1.36833 18.0976C1.33541 17.9689 1.33771 17.8337 1.37501 17.7062L2.25626 14.5937Z" stroke="#F0FFF1" stroke-width="2" stroke-linecap="round" stroke-linejoin="round"/>
</svg>
