<svg width="280" height="59" viewBox="0 0 280 59" fill="none" xmlns="http://www.w3.org/2000/svg">
<path d="M51.0502 45.2659C53.5288 44.4067 54.3079 43.4707 54.4873 40.896C54.4028 38.625 53.7698 37.58 51.3626 36.2139H29.6463C28.0634 36.332 27.2911 36.5395 26.3655 37.4625L17.304 46.5145C14.3998 49.8051 12.8918 50.4488 10.4298 49.3237C9.23535 47.873 8.93704 46.912 9.80484 44.6416L21.6785 14.0522C22.465 12.8339 22.9988 12.2103 24.1782 11.243C26.3609 9.64764 27.6536 9.16161 30.115 9.05802C33.0087 9.19577 34.4475 9.66381 36.6768 11.243L78.2346 52.7572C81.1212 56.2822 83.1881 57.7149 87.921 59H90.7332C96.0134 58.1029 98.0194 56.6174 100.42 52.7572C101.632 50.5715 102.102 49.3007 101.982 46.8266C102.042 44.9521 101.963 43.8774 101.045 41.8324L90.4207 13.7401C88.6473 9.14426 87.3044 7.05833 84.1714 4.37596C80.9689 1.71398 78.8414 0.770313 74.485 0.0060392H57.9244C55.7741 0.383657 55.0847 1.44466 54.4873 4.37596C54.775 6.8455 55.4237 7.93373 57.9244 9.05802H73.2352C76.653 9.98129 78.2448 11.0451 80.4218 14.0522L92.9204 46.2023C91.8773 49.3812 90.5744 49.9488 86.9836 48.6994L41.6762 3.75168C37.8492 1.08409 35.4119 0.0988148 30.115 0.0060333C24.9676 -0.102992 22.6165 1.2662 18.5538 4.06382C15.4303 6.40748 14.1108 8.24289 12.3046 12.1794L0.430934 43.7052C-0.275434 46.7135 -0.109443 48.3863 0.899631 51.3526C4.04933 56.8435 6.43155 58.7384 12.3046 58.9999C15.3464 59.005 16.9466 58.6509 19.4913 56.9711L30.74 45.578L51.0502 45.2659Z" fill="url(#paint0_linear_8_18)"/>
<path d="M142.284 18.6818V40.5H137.341L129.457 29.0369H129.33V40.5H123.406V18.6818H128.435L136.19 30.1023H136.361V18.6818H142.284ZM153.012 40.7983C151.265 40.7983 149.759 40.4645 148.495 39.7969C147.238 39.1222 146.268 38.1562 145.587 36.8991C144.912 35.6349 144.575 34.1222 144.575 32.3608C144.575 30.6705 144.915 29.1932 145.597 27.929C146.279 26.6648 147.241 25.6811 148.484 24.978C149.727 24.2749 151.194 23.9233 152.884 23.9233C154.12 23.9233 155.239 24.1151 156.24 24.4986C157.241 24.8821 158.097 25.4396 158.808 26.1712C159.518 26.8956 160.065 27.7763 160.448 28.8132C160.832 29.8501 161.023 31.0185 161.023 32.3182V33.6818H146.407V30.4432H155.612C155.604 29.9744 155.484 29.5625 155.249 29.2074C155.022 28.8452 154.713 28.5646 154.322 28.3658C153.939 28.1598 153.502 28.0568 153.012 28.0568C152.536 28.0568 152.099 28.1598 151.702 28.3658C151.304 28.5646 150.984 28.8416 150.743 29.1967C150.509 29.5518 150.384 29.9673 150.37 30.4432V33.9375C150.37 34.4631 150.48 34.9318 150.7 35.3438C150.92 35.7557 151.237 36.0788 151.648 36.3132C152.06 36.5476 152.558 36.6648 153.14 36.6648C153.545 36.6648 153.914 36.608 154.248 36.4943C154.589 36.3807 154.88 36.2173 155.121 36.0043C155.363 35.7841 155.54 35.5213 155.654 35.2159H161.023C160.839 36.3523 160.402 37.3395 159.713 38.1776C159.024 39.0085 158.112 39.6548 156.975 40.1165C155.846 40.571 154.525 40.7983 153.012 40.7983ZM168.318 24.1364L170.705 29.2074L173.219 24.1364H179.057L174.668 32.3182L179.27 40.5H173.475L170.705 35.3011L168.02 40.5H162.139L166.784 32.3182L162.438 24.1364H168.318ZM190.906 24.1364V28.3977H180.125V24.1364H190.906ZM182.213 20.2159H188.094V35.2372C188.094 35.4645 188.133 35.6562 188.211 35.8125C188.289 35.9616 188.41 36.0753 188.573 36.1534C188.737 36.2244 188.946 36.2599 189.202 36.2599C189.379 36.2599 189.585 36.2386 189.82 36.196C190.061 36.1534 190.239 36.1179 190.352 36.0895L191.205 40.223C190.942 40.3011 190.565 40.397 190.075 40.5107C189.592 40.6243 189.017 40.6989 188.349 40.7344C187 40.8054 185.867 40.6669 184.951 40.3189C184.035 39.9638 183.346 39.4062 182.884 38.6463C182.423 37.8864 182.199 36.9347 182.213 35.7912V20.2159ZM207.39 25.8835C207.297 25.5071 207.152 25.1768 206.953 24.8928C206.754 24.6016 206.506 24.3565 206.207 24.1577C205.916 23.9517 205.575 23.799 205.184 23.6996C204.801 23.593 204.378 23.5398 203.917 23.5398C202.922 23.5398 202.074 23.7777 201.371 24.2536C200.675 24.7294 200.142 25.4148 199.773 26.3097C199.41 27.2045 199.229 28.2841 199.229 29.5483C199.229 30.8267 199.403 31.9205 199.751 32.8295C200.099 33.7386 200.618 34.4347 201.307 34.9176C201.996 35.4006 202.851 35.642 203.874 35.642C204.776 35.642 205.525 35.5107 206.122 35.2479C206.726 34.9851 207.177 34.6122 207.475 34.1293C207.773 33.6463 207.922 33.0781 207.922 32.4247L208.945 32.5312H203.959V28.3125H213.633V31.3381C213.633 33.3267 213.21 35.0277 212.365 36.4411C211.527 37.8473 210.369 38.9268 208.892 39.6797C207.422 40.4254 205.735 40.7983 203.831 40.7983C201.708 40.7983 199.844 40.3473 198.238 39.4453C196.633 38.5433 195.38 37.2578 194.478 35.5888C193.583 33.9197 193.135 31.9347 193.135 29.6335C193.135 27.8295 193.409 26.2315 193.956 24.8395C194.51 23.4474 195.277 22.272 196.257 21.3132C197.237 20.3473 198.37 19.6193 199.655 19.1293C200.941 18.6321 202.319 18.3835 203.789 18.3835C205.081 18.3835 206.282 18.5682 207.39 18.9375C208.505 19.2997 209.488 19.8182 210.341 20.4929C211.2 21.1605 211.893 21.9524 212.418 22.8686C212.944 23.7848 213.263 24.7898 213.377 25.8835H207.39ZM221.039 40.7557C219.995 40.7557 219.072 40.5852 218.27 40.2443C217.474 39.8963 216.849 39.3707 216.395 38.6676C215.94 37.9645 215.713 37.0696 215.713 35.983C215.713 35.0881 215.865 34.3246 216.171 33.6925C216.476 33.0533 216.902 32.5312 217.449 32.1264C217.996 31.7216 218.632 31.4126 219.356 31.1996C220.088 30.9865 220.876 30.848 221.721 30.7841C222.637 30.7131 223.373 30.6278 223.926 30.5284C224.488 30.4219 224.892 30.2763 225.141 30.0916C225.39 29.8999 225.514 29.6477 225.514 29.3352V29.2926C225.514 28.8665 225.35 28.5398 225.024 28.3125C224.697 28.0852 224.278 27.9716 223.767 27.9716C223.206 27.9716 222.748 28.0959 222.392 28.3445C222.044 28.5859 221.835 28.9588 221.764 29.4631H216.352C216.423 28.4687 216.739 27.5526 217.3 26.7145C217.868 25.8693 218.696 25.1946 219.782 24.6903C220.869 24.179 222.225 23.9233 223.852 23.9233C225.024 23.9233 226.075 24.0618 227.005 24.3388C227.936 24.6087 228.728 24.9886 229.381 25.4787C230.034 25.9616 230.532 26.5298 230.873 27.1832C231.221 27.8295 231.395 28.5327 231.395 29.2926V40.5H225.897V38.1989H225.77C225.443 38.8097 225.045 39.3033 224.576 39.6797C224.115 40.0561 223.586 40.3295 222.989 40.5C222.4 40.6705 221.75 40.7557 221.039 40.7557ZM222.957 37.0483C223.404 37.0483 223.824 36.956 224.214 36.7713C224.612 36.5866 224.935 36.3203 225.184 35.9723C225.432 35.6243 225.556 35.2017 225.556 34.7045V33.3409C225.4 33.4048 225.233 33.4652 225.056 33.522C224.885 33.5788 224.701 33.6321 224.502 33.6818C224.31 33.7315 224.104 33.7777 223.884 33.8203C223.671 33.8629 223.447 33.902 223.213 33.9375C222.758 34.0085 222.385 34.1257 222.094 34.2891C221.81 34.4453 221.597 34.6406 221.455 34.875C221.32 35.1023 221.252 35.358 221.252 35.642C221.252 36.0966 221.412 36.4446 221.732 36.6861C222.051 36.9276 222.46 37.0483 222.957 37.0483ZM234.204 40.5V24.1364H239.787V27.2472H239.957C240.298 26.2244 240.881 25.4148 241.704 24.8182C242.528 24.2216 243.508 23.9233 244.645 23.9233C245.795 23.9233 246.786 24.2287 247.617 24.8395C248.448 25.4432 248.949 26.2457 249.119 27.2472H249.29C249.567 26.2457 250.156 25.4432 251.058 24.8395C251.96 24.2287 253.018 23.9233 254.233 23.9233C255.802 23.9233 257.074 24.4276 258.047 25.4361C259.027 26.4446 259.517 27.7869 259.517 29.4631V40.5H253.636V30.9545C253.636 30.2372 253.455 29.6761 253.093 29.2713C252.731 28.8594 252.244 28.6534 251.633 28.6534C251.03 28.6534 250.55 28.8594 250.195 29.2713C249.847 29.6761 249.673 30.2372 249.673 30.9545V40.5H244.048V30.9545C244.048 30.2372 243.867 29.6761 243.505 29.2713C243.143 28.8594 242.656 28.6534 242.045 28.6534C241.64 28.6534 241.292 28.7457 241.001 28.9304C240.71 29.1151 240.483 29.3814 240.319 29.7294C240.163 30.0703 240.085 30.4787 240.085 30.9545V40.5H234.204ZM270.258 40.7983C268.511 40.7983 267.005 40.4645 265.741 39.7969C264.484 39.1222 263.515 38.1562 262.833 36.8991C262.158 35.6349 261.821 34.1222 261.821 32.3608C261.821 30.6705 262.162 29.1932 262.843 27.929C263.525 26.6648 264.488 25.6811 265.73 24.978C266.973 24.2749 268.44 23.9233 270.13 23.9233C271.366 23.9233 272.485 24.1151 273.486 24.4986C274.488 24.8821 275.343 25.4396 276.054 26.1712C276.764 26.8956 277.311 27.7763 277.694 28.8132C278.078 29.8501 278.27 31.0185 278.27 32.3182V33.6818H263.653V30.4432H272.858C272.85 29.9744 272.73 29.5625 272.495 29.2074C272.268 28.8452 271.959 28.5646 271.569 28.3658C271.185 28.1598 270.748 28.0568 270.258 28.0568C269.782 28.0568 269.346 28.1598 268.948 28.3658C268.55 28.5646 268.23 28.8416 267.989 29.1967C267.755 29.5518 267.63 29.9673 267.616 30.4432V33.9375C267.616 34.4631 267.726 34.9318 267.946 35.3438C268.167 35.7557 268.483 36.0788 268.895 36.3132C269.306 36.5476 269.804 36.6648 270.386 36.6648C270.791 36.6648 271.16 36.608 271.494 36.4943C271.835 36.3807 272.126 36.2173 272.368 36.0043C272.609 35.7841 272.787 35.5213 272.9 35.2159H278.27C278.085 36.3523 277.648 37.3395 276.959 38.1776C276.27 39.0085 275.358 39.6548 274.221 40.1165C273.092 40.571 271.771 40.7983 270.258 40.7983Z" fill="#F6F8FF"/>
<defs>
<linearGradient id="paint0_linear_8_18" x1="18" y1="52" x2="23" y2="46.5" gradientUnits="userSpaceOnUse">
<stop stop-color="#5BD793"/>
<stop offset="0.556667" stop-color="#5603AD" stop-opacity="0.91"/>
<stop offset="1" stop-color="#5BD793"/>
</linearGradient>
</defs>
</svg>
