<svg width="29" height="29" viewBox="0 0 29 29" fill="none" xmlns="http://www.w3.org/2000/svg">
<path d="M24.5079 13.7344L6.03445 3.38755C5.87884 3.30158 5.70074 3.26505 5.52385 3.28283C5.34697 3.3006 5.17969 3.37183 5.0443 3.48703C4.9089 3.60224 4.81181 3.75595 4.76595 3.92771C4.72008 4.09947 4.72763 4.28112 4.78757 4.44848L8.2657 14.2047C8.34232 14.3942 8.34232 14.6059 8.2657 14.7954L4.78757 24.5516C4.72763 24.719 4.72008 24.9006 4.76595 25.0724C4.81181 25.2441 4.9089 25.3979 5.0443 25.5131C5.17969 25.6283 5.34697 25.6995 5.52385 25.7173C5.70074 25.735 5.87884 25.6985 6.03445 25.6125L24.5079 15.2657C24.6446 15.19 24.7586 15.0791 24.838 14.9444C24.9174 14.8098 24.9593 14.6563 24.9593 14.5C24.9593 14.3437 24.9174 14.1903 24.838 14.0557C24.7586 13.921 24.6446 13.8101 24.5079 13.7344V13.7344Z" stroke="#F0FFF1" stroke-width="2" stroke-linecap="round" stroke-linejoin="round"/>
<path d="M8.375 14.5H15.375" stroke="#F0FFF1" stroke-width="2" stroke-linecap="round" stroke-linejoin="round"/>
</svg>
